<?xml version="1.0" encoding="UTF-8"?> <!-- Generator: Adobe Illustrator 23.0.0, SVG Export Plug-In . SVG Version: 6.00 Build 0) --> <svg xmlns="http://www.w3.org/2000/svg" xmlns:xlink="http://www.w3.org/1999/xlink" id="Слой_1" x="0px" y="0px" viewBox="0 0 175.7 46.5" style="enable-background:new 0 0 175.7 46.5;" xml:space="preserve"> <style type="text/css"> .st0{fill-rule:evenodd;clip-rule:evenodd;fill:#FFFFFF;} </style> <path class="st0" d="M175.4,29.8c-0.1,0.1-0.2,0.2-0.3,0.2c0,0-0.1,0.1-0.2,0.2c-0.1,0.1-0.2,0.1-0.2,0.2c-0.3,0.2-0.7,0.4-1.1,0.6 c-0.5,0.2-0.9,0.4-1.4,0.6c-0.5,0.2-0.9,0.4-1.4,0.5c-0.4,0.2-0.8,0.3-1,0.3c-0.4,0.1-0.7,0.1-1-0.1c-0.3-0.1-0.5-0.2-0.6-0.3 c-0.6-0.4-1-0.8-1-1.3v-1c0,0,0-0.1-0.1-0.1c0,0-0.1-0.1-0.1-0.1l0.1-0.5l-0.1,0l-0.8,0.8c0,0-0.1,0.1-0.3,0.2 c-0.2,0.2-0.4,0.4-0.6,0.6c-0.3,0.2-0.4,0.4-0.6,0.6c-0.1,0.1-0.3,0.2-0.5,0.3c-0.2,0.1-0.4,0.3-0.6,0.5c-0.2,0.2-0.4,0.3-0.5,0.5 c-0.1,0.1-0.2,0.2-0.3,0.3c-0.1,0.1-0.1,0.2-0.2,0.3c-0.1,0.2-0.2,0.3-0.3,0.5c-0.1,0.1-0.2,0.3-0.3,0.4c-0.1,0.1-0.1,0.2-0.2,0.2 c0,0.1-0.1,0.2-0.2,0.4c-0.1,0.2-0.1,0.3-0.2,0.4c0,0-0.1,0.1-0.1,0.1c0,0-0.1,0.1-0.1,0.1c-0.1,0-0.1,0.1-0.2,0.1 c-0.1,0.1-0.1,0.1-0.2,0.1c0,0-0.1,0-0.3,0.1c-0.1,0-0.3,0.1-0.3,0.1c-0.1,0-0.1,0-0.2,0c-0.1,0-0.2,0-0.2,0c0,0-0.1-0.1-0.2-0.3 c-0.1-0.2-0.1-0.3-0.2-0.3c0-0.2,0-0.3,0-0.3c0-0.1,0-0.2,0-0.4c0-0.1,0-0.1,0.1-0.2c0-0.1,0.1-0.1,0.1-0.2c0.5-0.5,0.9-1,1.2-1.5 c0.3-0.4,0.5-1,0.5-1.7c-0.1-0.4-0.3-0.7-0.6-0.7s-0.8,0-1.4,0.2c-0.6,0.2-1.3,0.6-2.1,1.1c-0.8,0.5-1.7,1.1-2.7,1.9 c-0.1,0.1-0.2,0.2-0.4,0.4c-0.2,0.2-0.3,0.3-0.5,0.5c-0.2,0.2-0.3,0.3-0.5,0.4c-0.1,0.1-0.2,0.2-0.3,0.2l-1,1.2 c-0.1,0.1-0.1,0.2-0.3,0.3c-0.1,0.1-0.2,0.2-0.2,0.2c0,0-0.1,0-0.1,0c-0.1,0-0.1,0-0.2,0.1c0,0-0.1,0-0.2,0c-0.1,0-0.2,0-0.4,0 c-0.2,0-0.3-0.1-0.3-0.1c0,0-0.1-0.1-0.1-0.2c0-0.1-0.1-0.2-0.1-0.2l0-0.1v-0.1c0.1-0.1,0.1-0.2,0.2-0.4c0.1-0.2,0.2-0.4,0.3-0.6 c0.1-0.1,0.2-0.3,0.3-0.5c0.2-0.2,0.3-0.4,0.3-0.4c0.1,0,0.2-0.1,0.3-0.3c0.2-0.1,0.3-0.2,0.3-0.2l0.5-0.6c0.2-0.3,0.4-0.6,0.5-0.8 c0.1-0.2,0.2-0.4,0.3-0.6c0-0.1,0-0.1-0.1-0.2c0-0.1-0.1-0.1-0.1-0.2c-0.1-0.1-0.4-0.1-0.8,0c-0.4,0.1-0.7,0.2-0.9,0.4 c-0.3,0.2-0.5,0.3-0.8,0.5c-0.6,0.5-1.2,1-1.7,1.4c-0.5,0.4-0.9,0.8-1.3,1.2c-0.2,0.2-0.5,0.5-0.8,0.7l0.1,0.3 c0.1,0,0.2,0.1,0.2,0.2c0,0.1,0,0.1-0.1,0.1c0,0-0.1,0.1-0.2,0.2c-0.1,0.1-0.2,0.2-0.3,0.3c-0.1,0.1-0.2,0.2-0.4,0.3 c-0.1,0.1-0.2,0.2-0.2,0.2c-0.1,0-0.3,0.2-0.6,0.5c-0.3,0.3-0.5,0.4-0.6,0.4l-0.9,0.5c-0.1,0-0.2,0.1-0.4,0.2 c-0.2,0.1-0.4,0.2-0.4,0.2l-0.7,0.2l-0.7,0.2c-0.1,0-0.2,0-0.5,0c-0.2,0-0.4,0-0.4,0c-0.1,0-0.2-0.1-0.5-0.1 c-0.3-0.1-0.4-0.1-0.5-0.2c-0.1,0-0.2-0.1-0.3-0.2c-0.2-0.1-0.3-0.2-0.3-0.2l-0.3,0.1l-0.4,0.1c-0.1,0-0.2,0.1-0.4,0.2 c-0.1,0.1-0.3,0.2-0.4,0.3c-0.2,0.1-0.4,0.3-0.7,0.5c-0.3,0.2-0.4,0.3-0.5,0.3c0,0-0.2,0.1-0.4,0.2c-0.3,0.1-0.4,0.2-0.6,0.2 c-0.1,0-0.2,0-0.4,0.1c-0.2,0.1-0.4,0.1-0.6,0.2c-0.2,0.1-0.4,0.1-0.6,0.2c-0.2,0.1-0.4,0.1-0.5,0.1l-0.2,0l-0.2,0 c-0.1,0-0.2,0-0.5,0c-0.3,0-0.5,0-0.7-0.1c-0.2,0-0.3,0-0.5-0.1c-0.2,0-0.4-0.1-0.5-0.2c-0.1-0.1-0.2-0.2-0.3-0.4 c-0.2-0.2-0.3-0.4-0.3-0.4c-0.1,0.1-0.1,0.1-0.2,0.2c-0.3,0.3-0.5,0.5-0.7,0.5c-0.3,0.3-0.6,0.5-0.9,0.7c-0.3,0.2-0.7,0.4-1.2,0.8 c-0.1,0-0.2,0.1-0.5,0.2c-0.3,0.2-0.4,0.2-0.5,0.3c-0.3,0.1-0.6,0.3-1,0.5c-0.4,0.2-0.6,0.4-0.7,0.4l-0.4,0.1l-0.6,0.1 c-0.2,0-0.4,0-0.8,0.1c-0.3,0-0.5,0.1-0.6,0.1c-0.1,0-0.1-0.1-0.3-0.1c-0.1-0.1-0.2-0.1-0.2-0.1c-0.1,0-0.2,0-0.4,0 c-0.2,0-0.4,0-0.4,0c-0.1,0-0.1,0-0.2-0.1c-0.1,0-0.1,0-0.1-0.1c0,0-0.1,0-0.1-0.1s-0.1-0.1-0.1-0.2c-0.1-0.1-0.1-0.3-0.2-0.5 c-0.1-0.2-0.1-0.3-0.1-0.3c-0.1,0.1-0.1,0.1-0.2,0.2c-0.3,0.3-0.5,0.5-0.6,0.6c0,0-0.1,0-0.2,0.1c-0.1,0.1-0.1,0.1-0.1,0.1 c-0.2,0.1-0.4,0.3-0.8,0.6c-0.4,0.3-0.7,0.5-1,0.7c-0.4,0.2-0.8,0.4-1.1,0.5c-0.3,0.1-0.6,0.2-0.8,0.3c-0.3,0.1-0.5,0.1-0.8,0.2 c-0.2,0-0.5,0.1-0.8,0.2c-0.1,0-0.1,0-0.2,0c-0.1,0-0.1,0-0.2,0c-0.2-0.1-0.5-0.1-0.7-0.2c-0.2-0.1-0.4-0.2-0.5-0.3 c-0.1,0-0.1-0.1-0.2-0.2c-0.1-0.1-0.1-0.2-0.1-0.2c-0.1-0.4,0-0.9,0.1-1.5c0.1-0.5,0.2-1,0.3-1.4c0,0-0.1,0-0.2,0.1 c-0.1,0.1-0.1,0.1-0.2,0.1c-0.2,0.3-0.4,0.5-0.6,0.7c-0.1,0.2-0.3,0.3-0.4,0.5c-0.1,0.2-0.2,0.3-0.3,0.3c-0.1,0-0.2,0.1-0.3,0.3 c-0.1,0.1-0.3,0.3-0.5,0.4c-0.2,0.2-0.3,0.3-0.4,0.4c-0.1,0.1-0.2,0.2-0.3,0.3c-0.1,0.1-0.2,0.2-0.4,0.3c-0.2,0.1-0.3,0.3-0.5,0.4 c-0.2,0.1-0.3,0.2-0.5,0.3c-0.1,0.1-0.2,0.2-0.2,0.2c-0.2,0.1-0.4,0.2-0.7,0.4c-0.3,0.1-0.5,0.1-0.6-0.2v-0.2c0-0.3,0-0.5,0.1-0.7 c0.1-0.2,0.4-0.5,1-1c0.3-0.3,0.7-0.5,1-0.8c0.3-0.3,0.7-0.6,1.1-0.9c0.4-0.3,0.8-0.7,1.2-1.1c0.5-0.4,1-0.9,1.6-1.5 c0,0,0.1-0.2,0.4-0.4c0.2-0.2,0.4-0.4,0.5-0.5c0,0,0.1-0.1,0.2-0.2c0.1-0.1,0.2-0.2,0.4-0.4c0.1-0.1,0.3-0.3,0.4-0.4 c0.1-0.1,0.2-0.2,0.3-0.3c0.1,0,0.2-0.1,0.2-0.2c0.2-0.3,0.4-0.6,0.6-1c0.2-0.3,0.4-0.7,0.6-1c0.1-0.1,0.1-0.2,0.3-0.5 c0.1-0.3,0.2-0.4,0.2-0.5c0.1-0.1,0.2-0.3,0.3-0.6c0.2-0.3,0.3-0.5,0.3-0.6c0,0,0.1-0.2,0.3-0.4c0.1-0.2,0.2-0.4,0.3-0.4 c0.1-0.1,0.2-0.3,0.3-0.6c0.2-0.3,0.3-0.5,0.3-0.6c0,0,0.1-0.1,0.2-0.3c0.1-0.1,0.2-0.3,0.3-0.4c0.1-0.2,0.2-0.3,0.3-0.4 c0.1-0.1,0.1-0.2,0.2-0.3c0-0.1,0.1-0.2,0.2-0.3c0.1-0.2,0.2-0.2,0.2-0.3c0.1-0.1,0.2-0.2,0.4-0.5c0.2-0.3,0.4-0.5,0.4-0.7 c0,0,0.1,0,0.1-0.1s0.1-0.1,0.1-0.1c0.1-0.2,0.2-0.4,0.4-0.7c0.2-0.3,0.3-0.5,0.3-0.5c0,0,0-0.1,0-0.2c0-0.1,0-0.1,0-0.2 c-0.1,0-0.2,0-0.3,0.1c-0.1,0-0.2,0.1-0.3,0.1c-0.1,0-0.1,0-0.3,0c-0.1,0-0.2,0-0.2,0c-0.1,0-0.2,0-0.4,0s-0.4,0-0.4,0 c-0.1,0-0.3,0-0.5,0c-0.3,0-0.4,0-0.5-0.1c0,0-0.1,0-0.1-0.1s-0.1-0.1-0.1-0.1c-0.1,0-0.1-0.1-0.1-0.1c0-0.1-0.1-0.1-0.1-0.1v-0.3 v-0.2c0,0,0.1-0.1,0.2-0.1s0.1-0.1,0.2-0.1l4.8-1.1c0,0,0.1-0.1,0.3-0.3c0.2-0.2,0.3-0.4,0.4-0.5c0.1-0.2,0.3-0.4,0.6-0.8 c0.3-0.4,0.5-0.7,0.7-1c0.1-0.1,0.1-0.2,0.2-0.3c0.1-0.1,0.1-0.1,0.1-0.1c0.1-0.1,0.2-0.2,0.4-0.5c0.2-0.3,0.3-0.5,0.3-0.5 c0.1-0.1,0.1-0.2,0.3-0.4c0.1-0.2,0.2-0.3,0.4-0.5c0.1-0.2,0.3-0.3,0.4-0.5c0.1-0.1,0.2-0.2,0.2-0.3l1.4-1.7c0,0,0.1,0,0.1-0.1 c0.1,0,0.1,0,0.1-0.1c0,0,0.1,0,0.2,0c0.1,0,0.1,0.1,0.3,0.2c0.1,0.1,0.2,0.2,0.2,0.2c0,0.1,0,0.2,0,0.2c0,0,0,0.1,0,0.1 c0,0.1,0,0.1,0,0.1c0,0.1-0.1,0.2-0.2,0.5c-0.1,0.3-0.1,0.5-0.2,0.6c0,0-0.1,0.1-0.2,0.3c-0.1,0.2-0.1,0.3-0.2,0.3 c-0.3,0.5-0.6,1-0.9,1.5c-0.3,0.5-0.6,1-1,1.5c0,0.1-0.1,0.2-0.2,0.3c-0.1,0.1-0.1,0.2-0.2,0.3c0,0.1-0.1,0.1-0.1,0.2 c0,0.1-0.1,0.1-0.1,0.2c0,0.1,0.1,0.1,0.2,0.1l8.9-2l0.3,0.2c0.1,0.1,0.2,0.3,0.4,0.6l-0.2,0.2c-0.3,0.1-0.6,0.2-0.8,0.3 c-0.2,0.1-0.5,0.1-0.7,0.2c-0.2,0.1-0.4,0.1-0.6,0.2l-2.2,0.5c-0.1,0-0.2,0.1-0.4,0.2c-0.2,0.1-0.4,0.2-0.4,0.2l-0.4,0.1l-0.8,0.2 l-0.8,0.2l-0.4,0.1c-0.1,0-0.4,0.1-0.7,0.2c-0.3,0.1-0.6,0.2-1,0.3c-0.3,0.1-0.7,0.2-1,0.3c-0.3,0.1-0.5,0.2-0.7,0.2l-0.3,0.4 c-0.1,0.1-0.2,0.3-0.4,0.7c-0.2,0.4-0.4,0.7-0.6,1c-0.1,0.2-0.2,0.3-0.3,0.5c-0.1,0.1-0.3,0.3-0.4,0.5c0,0-0.1,0.2-0.2,0.4 c-0.1,0.2-0.2,0.4-0.3,0.4l-1.2,1.5c-0.1,0.2-0.2,0.4-0.4,0.6c-0.1,0.2-0.3,0.4-0.4,0.5c-0.2,0.2-0.3,0.4-0.5,0.6 c-0.1,0.2-0.2,0.4-0.3,0.4c-0.1,0.1-0.3,0.4-0.6,0.7c-0.3,0.3-0.6,0.7-0.9,1.1c-0.3,0.4-0.6,0.7-0.9,1.1c-0.3,0.3-0.5,0.6-0.6,0.7 c0,0.1-0.1,0.2-0.2,0.3s-0.1,0.2-0.2,0.3c-0.1,0.1-0.2,0.2-0.4,0.5c-0.2,0.3-0.3,0.4-0.3,0.5c-0.1,0.1-0.1,0.3-0.3,0.6 c-0.1,0.3-0.3,0.6-0.4,1c-0.2,0.4-0.3,0.7-0.5,1c-0.1,0.3-0.2,0.5-0.3,0.7c-0.2,0.4-0.3,0.9-0.3,1.3c-0.1,0.4,0,0.7,0.2,0.7 c0,0,0.2,0.1,0.4,0.1c0.3,0,0.7,0,1.3-0.1c0.6-0.1,1.3-0.5,2-1c0.2-0.1,0.4-0.2,0.7-0.4c0.3-0.2,0.5-0.4,0.8-0.5 c0.3-0.1,0.5-0.2,0.7-0.2c0,0,0.1,0,0.1,0c0,0,0-0.1,0-0.2c0-0.1,0.1-0.2,0.2-0.4c0.1-0.2,0.2-0.3,0.2-0.4c0,0,0-0.1,0.1-0.3 c0-0.2,0.1-0.3,0.1-0.4c0.1-0.1,0.1-0.4,0.3-0.6c0.1-0.3,0.2-0.5,0.3-0.7c0-0.1,0.1-0.2,0.1-0.3c0-0.1,0.1-0.2,0.3-0.5 c0.2-0.3,0.3-0.4,0.4-0.5c0.1-0.1,0.1-0.2,0.3-0.4c0.1-0.2,0.2-0.3,0.2-0.4c0.1-0.2,0.2-0.3,0.2-0.4c0.1-0.2,0.3-0.4,0.4-0.6 c0.1-0.2,0.3-0.4,0.5-0.6c0.1,0,0.1-0.2,0.3-0.4c0.1-0.2,0.2-0.4,0.2-0.4c0.1-0.2,0.3-0.5,0.7-1c0.1-0.1,0.2-0.2,0.4-0.4 c0.2-0.2,0.4-0.3,0.4-0.3c0.1-0.1,0.2-0.2,0.4-0.4c0.2-0.2,0.4-0.4,0.4-0.4c0.1-0.1,0.1-0.2,0.3-0.3c0.1-0.1,0.2-0.2,0.3-0.2 c0.4-0.3,0.8-0.6,1.2-0.9c0.4-0.3,0.9-0.5,1.3-0.6l0.4-0.1c0,0,0.1,0,0.2,0c0.1,0,0.1,0,0.2,0.1c0.2,0,0.3,0.1,0.4,0.3v0.6v0.6 c0,0,0,0.1-0.1,0.3c0,0.1-0.1,0.2-0.1,0.3c-0.1,0.1-0.1,0.4-0.3,0.7c-0.1,0.3-0.2,0.5-0.2,0.6c-0.1,0.1-0.1,0.3-0.3,0.5 c-0.1,0.2-0.2,0.4-0.3,0.5c-0.1,0.1-0.2,0.2-0.4,0.4c-0.2,0.2-0.3,0.4-0.3,0.4c0,0-0.1,0.1-0.1,0.2c-0.1,0.1-0.1,0.2-0.2,0.4 s-0.2,0.3-0.2,0.4c-0.1,0.1-0.1,0.2-0.1,0.2c-0.1,0.1-0.1,0.2-0.3,0.4c-0.1,0.2-0.2,0.3-0.2,0.4c0,0-0.1,0.1-0.3,0.2 c-0.1,0.1-0.2,0.2-0.3,0.2c-0.1,0.1-0.2,0.3-0.4,0.5c-0.2,0.2-0.4,0.5-0.6,0.8c-0.2,0.3-0.4,0.5-0.6,0.8c-0.2,0.2-0.3,0.4-0.4,0.5 c-0.1,0.1-0.3,0.2-0.5,0.4c-0.2,0.2-0.3,0.3-0.5,0.5c-0.1,0.1-0.3,0.3-0.5,0.6c-0.3,0.3-0.4,0.5-0.5,0.6v0.1v0.1l0.2,0.2 c0.1,0,0.2,0,0.3,0c0.2,0,0.3,0,0.3,0l0.9-0.2c0.1,0,0.3-0.1,0.6-0.1c0.1,0,0.3-0.1,0.7-0.4s0.6-0.4,0.8-0.5c0,0,0.1-0.1,0.3-0.2 c0.1,0,0.2-0.1,0.4-0.1c0.2-0.1,0.3-0.1,0.4-0.2c0.4-0.2,0.8-0.5,1.1-0.8c0.3-0.3,0.6-0.5,1-0.7c0,0,0.1-0.1,0.2-0.2 c0.1-0.1,0.1-0.1,0.2-0.2V38c0-0.1,0-0.2,0.1-0.4c0-0.2,0.1-0.4,0.1-0.5c0,0,0.1-0.1,0.1-0.2c0-0.1,0.1-0.2,0.1-0.2 c0,0,0-0.1,0.1-0.3c0.1-0.2,0.1-0.4,0.2-0.6c0.1-0.2,0.2-0.4,0.2-0.6c0.1-0.2,0.1-0.3,0.1-0.4c0-0.1,0-0.1,0.1-0.2 c0-0.1,0.1-0.2,0.1-0.2c0-0.1,0.1-0.2,0.3-0.5c0.2-0.3,0.3-0.4,0.4-0.5c0-0.1,0.1-0.2,0.2-0.3c0.1-0.2,0.2-0.2,0.2-0.3 c0,0,0-0.1,0.1-0.2c0.1-0.1,0.2-0.2,0.2-0.2c0.1-0.1,0.2-0.2,0.3-0.5c0.2-0.3,0.3-0.4,0.3-0.5c0.1-0.1,0.2-0.3,0.4-0.5 s0.4-0.5,0.6-0.8c0.2-0.3,0.4-0.5,0.6-0.7c0.2-0.2,0.3-0.4,0.4-0.5c0-0.1,0.2-0.2,0.4-0.5c0.2-0.2,0.4-0.4,0.4-0.4 c0.1,0,0.2-0.1,0.3-0.2c0.2-0.2,0.5-0.4,0.8-0.6c0.3-0.2,0.5-0.3,0.6-0.4c0.2-0.1,0.4-0.2,0.6-0.3c0.1-0.1,0.3-0.1,0.4-0.2 c0.1-0.1,0.2-0.1,0.2-0.1c0,0,0.1-0.1,0.2-0.2c0.1-0.1,0.2-0.1,0.2-0.2l0.4-0.1l0.3-0.1c0.1,0,0.3,0,0.6,0c0.3,0,0.4,0,0.5,0 c0,0,0.1,0,0.2,0.1c0.1,0,0.2,0.1,0.3,0.1l0.5,0.4c0.1,0,0.1,0.1,0.2,0.2c0.1,0.1,0.1,0.2,0.1,0.2c0,0,0.1,0.1,0.1,0.3 c0,0.2,0.1,0.3,0.1,0.4c0,0.1,0.1,0.3,0.1,0.6c0,0.3,0.1,0.5,0.1,0.5v0.5v0.5c0,0.1,0,0.2-0.1,0.4c0,0.2-0.1,0.5-0.1,0.7 c0,0.2-0.1,0.5-0.1,0.7c0,0.2-0.1,0.3-0.1,0.4c0,0.1,0,0.2,0,0.4c0,0.2,0,0.4,0,0.4c0,0-0.1,0.2-0.3,0.6c-0.2,0.4-0.3,0.7-0.4,0.9 c0,0.1-0.1,0.2-0.2,0.3c-0.1,0.2-0.2,0.3-0.3,0.5c-0.1,0.2-0.2,0.4-0.3,0.6c-0.1,0.2-0.1,0.3-0.1,0.3c0,0.2,0,0.4,0,0.4 c0,0.1,0,0.3,0,0.6c0,0,0,0.1,0.1,0.1c0,0,0.1,0.1,0.1,0.1c0.1,0,0.2,0,0.4,0c0.2,0,0.4,0,0.4,0l1-0.2c0,0,0.1-0.1,0.1-0.1 c0,0,0.1-0.1,0.3-0.3c0.1-0.2,0.2-0.3,0.3-0.3c0.1-0.1,0.4-0.3,0.8-0.6c0.4-0.4,0.9-0.8,1.4-1.3c0.5-0.5,1-1,1.5-1.5 c0.5-0.5,1-0.9,1.3-1.2c0.1-0.1,0.2-0.2,0.6-0.4c0.3-0.2,0.7-0.5,1.1-0.7c0.4-0.2,0.7-0.5,1.1-0.7c0.3-0.2,0.5-0.3,0.6-0.3 c0.1,0,0.2-0.1,0.6-0.2c0.3-0.1,0.6-0.2,0.7-0.2c0.5-0.1,1,0,1.4,0.3c0.5,0.3,0.7,0.8,0.6,1.5c0,0,0.1,0,0.2,0c0.1,0,0.2,0,0.2,0 c0.3-0.1,0.7-0.3,1.2-0.6c0.4-0.3,1.1-0.7,2.1-1.3c0.1-0.1,0.2-0.1,0.4-0.2c0.2-0.1,0.4-0.1,0.4-0.1c0,0,0.2-0.1,0.4-0.1l0.6-0.1 l0.5-0.1c0.2,0,0.3-0.1,0.3,0c0,0,0.1,0,0.4,0.1c0.2,0.1,0.4,0.1,0.5,0.2c0,0.1,0,0.1,0.1,0.1c0.1,0,0.1,0.1,0.2,0.3 c0.1,0.2,0.2,0.4,0.3,0.6c0.1,0.2,0.2,0.4,0.2,0.4c0,0.1,0.1,0.1,0.2,0.1l0.2,0l0.2,0c0.4-0.2,0.9-0.5,1.4-0.9 c0.5-0.3,1.1-0.8,1.7-1.3c0,0,0.1-0.1,0.3-0.2s0.3-0.3,0.5-0.4c0.2-0.1,0.4-0.3,0.5-0.4c0.2-0.1,0.3-0.2,0.3-0.2 c0.1-0.1,0.3-0.3,0.6-0.5c0.3-0.2,0.4-0.4,0.5-0.4l0.2,0l0.2,0c0.1,0,0.2,0.1,0.3,0.2c0.1,0.1,0.2,0.2,0.2,0.2c0,0.2,0,0.4,0,0.5 c0,0.1,0,0.2,0,0.3c0,0.1,0,0.2,0,0.3l-0.2,0.4c-0.1,0.2-0.2,0.4-0.4,0.7c-0.2,0.3-0.3,0.5-0.3,0.5c0,0-0.1,0.1-0.3,0.3 c-0.1,0.2-0.2,0.3-0.3,0.3c0,0-0.1,0.1-0.1,0.2c0,0.1-0.1,0.1-0.1,0.2c0,0,0,0.1,0,0.1c0,0,0,0.1,0,0.1c0,0,0,0.1,0,0.2 c0,0.7,0.2,1.1,0.7,1.1c0.5,0,1-0.1,1.6-0.3c0.6-0.2,1.2-0.5,1.7-0.9c0.5-0.3,0.8-0.5,0.9-0.5c0.1,0,0.2-0.1,0.4-0.2 c0.2-0.1,0.3-0.2,0.4-0.3l0.2,0l0.2-0.1c0.1,0.1,0.2,0.2,0.3,0.5c0.2,0.2,0.3,0.4,0.4,0.4v0.1v0.1C175.6,29.6,175.5,29.7,175.4,29.8 z M123,26.4c0.1-0.1,0.1-0.1,0.1-0.2c0-0.1,0-0.1-0.1-0.1c-0.1,0-0.1,0-0.1,0.2C122.9,26.4,122.9,26.4,123,26.4z M121.2,28.7 C121.2,28.8,121.3,28.8,121.2,28.7c0,0,0.1,0,0.2-0.1c0.1-0.1,0.1-0.2,0.2-0.2c0.1-0.2,0.2-0.4,0.4-0.6c0.2-0.3,0.3-0.5,0.4-0.7 c0.1-0.2,0.2-0.3,0.2-0.3v-0.2c0,0-0.1,0-0.2,0.1c-0.1,0.1-0.1,0.1-0.2,0.1l-0.3,0.4c-0.1,0.2-0.2,0.4-0.4,0.7 c-0.2,0.3-0.3,0.5-0.3,0.5C121.2,28.5,121.2,28.6,121.2,28.7C121.2,28.7,121.2,28.7,121.2,28.7z M120.9,29.2 C120.9,29.2,121,29.2,120.9,29.2c0.1-0.1,0.1-0.1,0-0.2C120.8,29,120.8,29.1,120.9,29.2C120.8,29.3,120.8,29.3,120.9,29.2z M123.1,39.3c0.2-0.2,0.3-0.3,0.3-0.3c0.1-0.1,0.3-0.3,0.5-0.5c0.2-0.2,0.3-0.3,0.3-0.3c0.1-0.1,0.2-0.3,0.4-0.5 c0.2-0.2,0.4-0.4,0.6-0.7c0.2-0.3,0.4-0.5,0.6-0.7c0.2-0.2,0.3-0.4,0.4-0.5c0,0,0.1-0.1,0.2-0.3c0.1-0.2,0.3-0.3,0.4-0.5 c0.1-0.2,0.3-0.4,0.4-0.5c0.1-0.2,0.2-0.3,0.2-0.3c0,0,0.1-0.1,0.3-0.3c0.1-0.2,0.2-0.3,0.3-0.3c0.1-0.2,0.2-0.4,0.4-0.7 c0.2-0.3,0.3-0.5,0.3-0.6c0-0.1,0.1-0.3,0.1-0.5s0.1-0.4,0.1-0.5c-0.1,0-0.1,0-0.3,0.1c-0.1,0-0.2,0.1-0.2,0.1 c-0.1,0.1-0.3,0.2-0.4,0.3c-0.1,0.1-0.2,0.2-0.5,0.5c-0.3,0.3-0.5,0.5-0.7,0.7c-0.1,0.2-0.3,0.3-0.4,0.3c-0.1,0.1-0.3,0.1-0.4,0.2 c-0.1,0-0.2,0.1-0.2,0.2c0,0-0.1,0.1-0.1,0.2c-0.1,0.1-0.1,0.2-0.2,0.4c-0.2,0.3-0.3,0.4-0.4,0.5c-0.1,0.1-0.2,0.2-0.4,0.5 c-0.1,0.2-0.3,0.4-0.5,0.7c-0.2,0.3-0.3,0.5-0.5,0.7c-0.2,0.2-0.3,0.4-0.4,0.6c-0.1,0.2-0.2,0.3-0.2,0.3c-0.1,0.1-0.1,0.3-0.3,0.5 c-0.1,0.3-0.2,0.5-0.4,0.8c-0.1,0.3-0.3,0.5-0.4,0.8c-0.1,0.3-0.2,0.4-0.2,0.5l0.1,0l0.1,0c0.3-0.2,0.4-0.4,0.5-0.5 C122.7,39.6,122.9,39.5,123.1,39.3z M141,32c0.2-0.3,0.3-0.5,0.3-0.5c0-0.1,0.1-0.3,0.1-0.7c0-0.4,0.1-0.7,0.1-0.9v-0.7v-0.6 c-0.1-0.1-0.1-0.2-0.2-0.3c0,0-0.1-0.1-0.2-0.2s-0.1-0.2-0.2-0.2l-0.2-0.1c-0.1,0-0.1,0-0.3,0c-0.1,0-0.2,0-0.2,0l-0.5,0.1l-0.4,0.1 l-2,1.1c-0.1,0-0.1,0.1-0.2,0.1c-0.1,0.1-0.1,0.1-0.1,0.1c-0.1,0-0.1,0.1-0.2,0.3c-0.1,0.1-0.2,0.3-0.4,0.5 c-0.1,0.2-0.3,0.3-0.4,0.5s-0.2,0.2-0.2,0.3c0,0-0.1,0.1-0.2,0.2c-0.1,0.1-0.2,0.2-0.3,0.3c-0.1,0.1-0.2,0.2-0.3,0.3 c-0.1,0.1-0.2,0.2-0.2,0.2l-0.4,0.4c-0.1,0.1-0.1,0.2-0.2,0.3c-0.1,0.1-0.2,0.3-0.3,0.4c-0.1,0.1-0.2,0.3-0.3,0.4 c-0.1,0.1-0.2,0.2-0.2,0.2c0,0-0.1,0.1-0.1,0.2c-0.1,0.1-0.1,0.3-0.2,0.4s-0.2,0.3-0.3,0.6c0,0-0.1,0.1-0.1,0.1c0,0-0.1,0.1-0.1,0.1 c0,0.1,0,0.2-0.1,0.3c-0.1,0.1-0.1,0.2-0.2,0.4c-0.1,0.2-0.2,0.4-0.3,0.6c-0.1,0.3-0.2,0.4-0.2,0.5c-0.1,0.3-0.1,0.5-0.1,0.7 c0,0.2-0.1,0.4-0.1,0.6c0,0.2-0.1,0.4-0.1,0.5v0.1v0.1c0,0,0.1,0.1,0.1,0.1c0,0.1,0.1,0.1,0.1,0.1c0,0,0,0.1,0.1,0.1 c0,0,0.1,0.1,0.1,0.1c0,0,0.1,0,0.2,0c0.1,0,0.2,0,0.3,0c0.1,0,0.2,0,0.4,0c0.2,0,0.3,0,0.3,0c0,0,0.2,0,0.5-0.1 c0.3,0,0.5-0.1,0.6-0.1c0.2,0,0.4-0.1,0.7-0.2c0.3-0.1,0.4-0.1,0.5-0.1c0,0,0.2-0.1,0.4-0.2c0.3-0.1,0.4-0.2,0.6-0.2 c0.1,0,0.2-0.1,0.3-0.2c0.2-0.1,0.3-0.1,0.3-0.1c0.1-0.1,0.2-0.2,0.4-0.3c0,0,0.1-0.1,0.2-0.1c0.1-0.1,0.2-0.2,0.3-0.3 c0.1-0.1,0.2-0.2,0.3-0.3c0.1-0.1,0.2-0.1,0.2-0.2c0,0,0.1,0,0.1-0.1c0,0,0.1-0.1,0.1-0.1c0.1-0.1,0.1-0.2,0.3-0.4 c0.1-0.2,0.2-0.3,0.3-0.4c0.1-0.1,0.2-0.3,0.3-0.6c0.2-0.3,0.3-0.5,0.3-0.6c0,0,0.1-0.1,0.1-0.2c0-0.1,0.1-0.1,0.1-0.2 c0-0.1,0-0.2,0.1-0.4c0-0.2,0.1-0.3,0.1-0.3c0-0.1,0.1-0.2,0.3-0.4c0.2-0.2,0.3-0.4,0.3-0.4C140.7,32.5,140.9,32.3,141,32z M28.4,18 v-1.2h7.4v2c0,0.5,0,0.9-0.1,1.3c-0.1,0.4-0.2,0.8-0.3,1.1c-0.2,0.3-0.4,0.6-0.6,0.8c-0.3,0.2-0.6,0.4-1,0.6 c-0.4,0.1-0.9,0.3-1.4,0.3C31.8,23,31.1,23,30.4,23h-4c-0.9,0-1.7-0.1-2.3-0.2c-0.6-0.1-1.1-0.3-1.5-0.5c-0.4-0.2-0.7-0.5-0.9-0.9 c-0.2-0.3-0.4-0.7-0.5-1.2c-0.1-0.5-0.2-1-0.2-1.6c0-0.6,0-1.2,0-1.9c0-0.7,0-1.3,0-1.9c0-0.6,0.1-1.1,0.2-1.6 c0.1-0.5,0.3-0.9,0.5-1.2c0.2-0.3,0.5-0.6,0.9-0.9c0.4-0.2,0.9-0.4,1.5-0.5c0.6-0.1,1.4-0.2,2.3-0.2h4c0.7,0,1.4,0,1.9,0.1 c0.6,0.1,1,0.2,1.4,0.3c0.4,0.1,0.7,0.3,1,0.5c0.3,0.2,0.5,0.5,0.6,0.8c0.2,0.3,0.3,0.6,0.3,1c0.1,0.4,0.1,0.8,0.1,1.2h-1.5 c0-0.6-0.1-1.1-0.2-1.5c-0.1-0.4-0.4-0.6-0.7-0.8c-0.3-0.2-0.7-0.3-1.2-0.4c-0.5-0.1-1.1-0.1-1.9-0.1h-4c-0.7,0-1.2,0-1.7,0.1 c-0.4,0-0.8,0.1-1.1,0.2c-0.3,0.1-0.5,0.3-0.7,0.5c-0.2,0.2-0.3,0.5-0.3,0.9c-0.1,0.4-0.1,0.8-0.1,1.4c0,0.5,0,1.2,0,1.9 c0,0.7,0,1.4,0,1.9c0,0.5,0.1,1,0.1,1.4c0.1,0.4,0.2,0.7,0.3,0.9c0.2,0.2,0.4,0.4,0.7,0.5c0.3,0.1,0.7,0.2,1.1,0.2 c0.4,0,1,0.1,1.7,0.1h4c0.6,0,1.1,0,1.5,0c0.4,0,0.8-0.1,1.1-0.2c0.3-0.1,0.5-0.2,0.7-0.3c0.2-0.1,0.3-0.3,0.4-0.5 c0.1-0.2,0.2-0.5,0.2-0.8c0-0.3,0.1-0.7,0.1-1.1V18H28.4z M39.7,10.8v10.7h9.4v1.2H38.3V10.8H39.7z M52.5,10.8v11.9h-1.5V10.8H52.5z M72,9.8c0.7-0.5,1.2,0.2,1.1,0.7c-0.1,0.5-0.3,2.1-1.9,1.8c-1.6-0.2-2.3,0.4-2.7,0.6c-0.5,0.3-0.2,0.9,0.4,1 c0.6,0.1,1.7-0.7,2.7-0.7c0.9,0,0.7,1.1-0.1,2.1s-2.9,0.8-3.7,0.9c-0.8,0.1-0.7,1.1,0.1,1c0.8-0.1,1.4,0.1,0.6,1.1 c-0.7,1-2.2,0.7-2.8,0.6c-0.7-0.1-1,0.6-0.2,0.8c0.8,0.1,0.3,0.9-0.4,1c-0.3,0.1-0.8,0.3-1.3,0.5l-0.8,1.6h-2.2l-6.2-11.9h1.7 l5.7,10.9l0.6-1.2c0-0.1-0.1-0.3-0.2-0.6c-0.3-0.8,0-0.9,0.5-1.4c0.5-0.5-0.2-0.9-0.4-1.4c-0.2-0.5-0.6-1.3-0.1-1.9 c0.5-0.6,1.3,0.1,1.6,0.5c0.2,0.4,0.7,0.7,0.9,0c0.2-0.7-1.1-1.5-2.1-2c-0.9-0.6-0.6-1.4-0.3-1.8c0.3-0.4,0.5-0.6,0.4-1.2 c-0.1-0.6,0.4-1,1-0.9c0.6,0.1,1,1.5,1.3,2.1c0.3,0.6,0.7,0.7,1,0.2c0.2-0.5-0.5-1.1-0.9-2c-0.4-0.9-0.1-1.3,0.1-1.6 c0.2-0.3,0.6-0.4,0.5-1c-0.1-0.6,0.6-1.2,1.2-0.7c0.6,0.5,0.2,1.8,0.2,2.3c0,0.5,0.6,0.4,0.9,0.2C68.2,9,68,8.5,67.8,8 C67.6,7.6,68,7,68.3,6.8c0.3-0.2,0.8-0.2,1.4-0.5c0.6-0.3,1-0.5,1.3-0.1c0.3,0.4,0.1,0.4,0.5,1.2C71.9,8.1,72,8.7,71.4,9 c-0.6,0.3-1.4,0.8-1.1,1.2C70.6,10.6,71.3,10.3,72,9.8z M86.2,21.5v1.2H74.3V10.8h11.8v1.2H75.8v4h9.8v1.2h-9.8v4.2H86.2z M88.1,22.8V10.8h8.4c0.9,0,1.7,0,2.3,0.1c0.6,0.1,1.1,0.2,1.5,0.3c0.4,0.1,0.7,0.3,0.9,0.5c0.2,0.2,0.4,0.4,0.5,0.7 c0.1,0.3,0.2,0.5,0.2,0.9c0,0.3,0,0.7,0,1.1c0,0.5,0,0.9-0.1,1.3c-0.1,0.4-0.2,0.7-0.3,1c-0.2,0.3-0.4,0.5-0.7,0.6 c-0.3,0.2-0.6,0.3-1,0.3c0.4,0.1,0.7,0.2,1,0.3c0.2,0.2,0.4,0.4,0.6,0.6c0.1,0.3,0.2,0.5,0.3,0.9c0,0.3,0.1,0.7,0.1,1.2v2.2h-1.5 v-2.2c0-0.4,0-0.7,0-0.9c0-0.3-0.1-0.5-0.1-0.7c-0.1-0.2-0.2-0.3-0.3-0.5c-0.2-0.1-0.4-0.2-0.7-0.3c-0.3-0.1-0.7-0.1-1.1-0.1 c-0.4,0-1,0-1.7,0h-6.6v4.7H88.1z M89.6,16.8h6.9c0.7,0,1.2,0,1.7,0c0.4,0,0.8-0.1,1.1-0.1c0.3-0.1,0.5-0.1,0.7-0.3 c0.2-0.1,0.3-0.3,0.3-0.5c0.1-0.2,0.1-0.4,0.1-0.7c0-0.3,0-0.6,0-0.9c0-0.3,0-0.6,0-0.9c0-0.2-0.1-0.4-0.1-0.6 c-0.1-0.2-0.2-0.3-0.3-0.4c-0.2-0.1-0.4-0.2-0.7-0.2c-0.3-0.1-0.7-0.1-1.1-0.1c-0.4,0-1,0-1.7,0h-6.9V16.8z M105.1,22.8h-1.7 l6.7-11.9h2.1l6.7,11.9h-1.6l-1.5-2.7h-9.2L105.1,22.8z M115.2,18.8l-3.9-7l-3.9,7H115.2z M118.3,1.9H17.7C9,1.9,2,8.7,2,17 S9,32.1,17.7,32.1h92.3V34H17.7C8,34,0,26.4,0,17C0,7.6,8,0,17.7,0h100.5C128,0,136,7.6,136,17h-2C134,8.7,127,1.9,118.3,1.9z"></path> </svg> 